<svg width="200" height="200" viewBox="0 0 200 200" fill="none" xmlns="http://www.w3.org/2000/svg">
<path d="M84.8675 149.891C86.9589 153.42 90.6937 156.367 93.6815 156.874C94.9513 157.099 96.1277 156.987 96.968 156.593C98.2752 155.973 98.8167 153.758 98.2752 151.393C97.659 148.784 96.4452 147.094 93.6628 145.048C92.5797 144.241 91.4593 143.265 91.1979 142.871C90.0774 141.238 89.816 139.698 90.5256 138.797C90.9738 138.215 90.7684 138.178 94.167 139.454C96.912 140.487 99.7131 141.031 101.338 140.862L103.392 140.656C103.952 140.599 104.1 140.606 104.1 140.606C104.1 140.606 106.081 139.999 106.193 139.999C106.286 139.999 106.809 139.811 107.351 139.604C109.573 138.703 110.805 138.347 111.104 138.516C111.664 138.854 111.851 139.886 111.534 141.012C111.123 142.439 110.282 143.434 108.247 145.011C106.081 146.662 105.315 147.488 104.456 149.14C103.653 150.698 103.317 152.162 103.429 153.627C103.635 156.424 105.166 157.456 108.191 156.818C110.413 156.348 112.056 155.429 114.111 153.495C116.351 151.393 117.92 148.765 118.723 145.724C119.059 144.447 119.152 143.471 119.264 139.248C119.377 134.311 119.395 134.255 119.974 132.546C120.684 130.463 121.487 128.83 123.802 124.775C126.529 119.988 127.129 118.451 127.129 118.451C127.129 118.451 129.348 112.461 129.815 108.894C130.133 106.454 130.207 100.203 129.909 100.203C129.815 100.203 129.722 100.278 129.722 100.372C129.722 100.616 127.145 102.531 125.614 103.413C124.885 103.845 123.149 104.633 121.729 105.178L119.171 106.173L118.574 107.355C117.845 108.857 116.912 111.635 115.866 115.408L115.063 118.318L115.007 114.376C114.895 105.572 116.258 100.016 119.526 96.0548C121.655 93.4456 126.529 90.3858 130.655 89.0343C131.216 88.8466 131.739 88.6776 131.813 88.6213C131.888 88.5838 131.514 87.8704 130.973 87.0445L130.002 85.524C130.002 85.524 129.162 83.8721 128.713 82.9148C127.556 80.437 126.622 77.6213 126.043 74.8806C125.165 70.6383 125.427 64.8192 126.715 60.1639C126.715 60.1639 127.63 57.1041 127.929 56.2782C128.471 54.7389 130.637 50.215 131.496 48.8072L132 48L131.458 48.1314C127.854 48.9573 124.157 50.1963 121.188 51.5853L119.096 52.5615L117.995 55.6024C114.727 64.5376 111.253 77.1332 106.678 96.7305C105.633 101.236 102.589 112.086 101.898 114.338C101.45 115.652 101.02 116.778 100.946 116.816C100.74 116.947 99.2276 112.386 98.0885 108.275C97.5469 106.266 96.1837 100.86 95.082 96.2613C92.2062 84.2663 89.3865 73.0786 88.1727 68.8738C86.2306 62.1536 83.1495 53.1058 82.6079 52.5802C82.3092 52.2799 78.481 50.5717 76.5016 49.8584C74.933 49.2952 70.1152 48 70.0032 48.1126C69.9658 48.1314 70.2646 48.657 70.6381 49.2577C71.6091 50.7969 73.3458 54.5137 74.1487 56.8038C75.6986 61.2714 76.3709 64.9318 76.3709 69.1366C76.3709 75.4626 74.5035 81.5069 70.7128 87.4012C70.1899 88.2083 70.0218 88.6025 70.1899 88.6588C75.0077 90.2732 78.313 92.1503 81.0954 94.8159C84.4193 97.9882 85.9879 101.78 86.6788 108.406C86.9776 111.185 87.0523 118.505 86.7908 118.036C86.6975 117.886 86.2867 116.459 85.8572 114.882C84.9982 111.673 83.8964 108.463 83.1681 107.036C82.7947 106.285 82.5519 106.06 82.0104 105.891C81.3941 105.685 80.7406 105.478 80.7406 105.478L79.9936 105.178C79.9936 105.178 78.2196 104.408 77.51 104.051C75.9041 103.263 73.7939 101.836 72.7855 100.917C72.3747 100.522 71.9826 100.203 71.9079 100.203C71.6651 100.203 71.9826 108.707 72.2814 110.302C73.2337 115.446 74.4288 118.336 78.5184 125.545C82.1411 131.889 82.5706 133.26 82.5146 138.309C82.4585 143.659 83.1308 146.982 84.8675 149.891Z" fill="black"/>
<path d="M146.507 78.3487C144.055 80.1673 141.602 83.1137 140.108 86.0883L133 88L131 83.5C129.5 81 128.904 77.0799 128.241 73.485C127.917 71.7228 127.917 67.3807 128.255 65.4493C128.805 62.2492 129.806 59.1336 131.215 56.2718L132.089 54.5096C132.089 54.5096 133.242 52.4008 134.229 51.0838C135.215 49.7669 137.541 47.9119 137.541 47.9119C141.205 45.3038 143.359 44.2183 147.195 43.4006C149.027 43.175 155.555 42.8508 157.232 43.0764L157.335 43.0917C158.008 43.1919 159.074 43.3506 159.783 43.4711C159.783 43.4711 162.814 44.0491 164.702 44.5848C172.299 46.7981 179.627 51.6759 184.56 57.8366C188.746 63.0527 191.635 69.6645 192.608 76.2059C193.158 79.9417 193.129 84.8759 192.523 88.4285C190.747 98.9313 184.152 108.038 175.202 112.338C172.369 113.706 169.607 114.495 166.351 114.876C164.223 115.129 159.783 114.974 157.867 114.594C155.175 114.044 152.13 112.888 150.256 111.69C144.041 107.714 140.602 101.751 140.602 94.9134C140.602 90.1202 141.912 86.6663 144.886 83.593C146.662 81.7462 148.804 80.4915 151.144 79.8853C152.342 79.5752 155.485 79.3778 156.57 79.5329C157.204 79.6316 157.232 79.6598 157.232 80.0968C157.232 80.5197 157.162 80.5902 156.499 80.9004C152.173 82.9022 149.438 86.8778 149.41 91.1776C149.41 93.0244 149.706 94.2931 150.594 96.1822C152.539 100.285 156.711 103.273 161.954 104.302C163.434 104.599 166.887 104.556 168.366 104.246C171.016 103.668 173.835 102.442 176.048 100.891C177.612 99.7771 180.276 97.1268 181.389 95.5619C185.082 90.374 186.787 83.5084 185.913 77.376C185.18 72.3713 183.151 67.3948 180.248 63.5744C179.768 62.94 177.88 60.6561 177.88 60.6561C177.88 60.6561 177.217 60.0781 176.611 59.5283C173.525 56.737 170.213 54.7492 166.379 53.3818C161.404 51.6054 156.359 51.1543 151.933 52.0707C147.93 52.8883 144.21 54.8761 141.377 57.6956C137.022 62.0518 135.119 68.142 136.402 73.626C136.796 75.2895 137.318 76.798 137.487 76.798C137.557 76.798 137.882 76.375 138.234 75.8534C139.39 74.1194 142.434 71.0179 142.955 70.8769C143.068 70.736 144.477 69.8196 144.914 69.3967C145.394 68.9738 147.268 67.86 148.847 67.2115C150.369 66.5913 152.469 66.0414 154.244 65.7877C155.428 65.6185 160.108 65.689 160.699 65.8723C161.461 66.0837 162.673 66.267 163.941 66.704C167.803 68.0433 171.115 70.595 173.412 74.0066C177.147 79.5329 177.725 87.202 174.85 92.9398C172.961 96.7179 169.973 99.326 166.111 100.553C165.083 100.891 164.603 100.947 162.701 101.018C161.263 101.06 160.164 101.018 159.6 100.919C158.219 100.651 158.219 100.651 158.219 100.158C158.219 99.7207 158.275 99.6925 159.445 99.2273C161.235 98.5365 162.489 97.733 163.786 96.4642C168.958 91.389 169.001 83.6353 163.871 78.6307C160.812 75.656 156.33 74.4859 152.229 75.5715C150.467 76.0508 148.071 77.2068 146.507 78.3487Z" fill="black"/>
<path d="M54.493 78.3487C56.9453 80.1673 59.3977 83.1137 60.8916 86.0883L68 88L70 83.5C71.5 81 72.0962 77.0799 72.7586 73.485C73.0828 71.7228 73.0828 67.3807 72.7445 65.4493C72.1949 62.2492 71.1942 59.1336 69.7848 56.2718L68.911 54.5096C68.911 54.5096 67.7578 52.4008 66.7712 51.0838C65.7847 49.7669 63.4592 47.9119 63.4592 47.9119C59.7948 45.3038 57.6409 44.2183 53.8049 43.4006C51.9727 43.175 45.4448 42.8508 43.7676 43.0764L43.6646 43.0917C42.9919 43.1919 41.9262 43.3506 41.2166 43.4711C41.2166 43.4711 38.1865 44.0491 36.2979 44.5848C28.7013 46.7981 21.3725 51.6759 16.4397 57.8366C12.2538 63.0527 9.36461 69.6645 8.39213 76.2059C7.84248 79.9417 7.87066 84.8759 8.4767 88.4285C10.2525 98.9313 16.8484 108.038 25.798 112.338C28.6309 113.706 31.3932 114.495 34.6489 114.876C36.7771 115.129 41.2166 114.974 43.1334 114.594C45.8253 114.044 48.8696 112.888 50.7441 111.69C56.9594 107.714 60.3983 101.751 60.3983 94.9134C60.3983 90.1202 59.0876 86.6663 56.1138 83.593C54.338 81.7462 52.1957 80.4915 49.8562 79.8853C48.6582 79.5752 45.5153 79.3778 44.43 79.5329C43.7958 79.6316 43.7676 79.6598 43.7676 80.0968C43.7676 80.5197 43.8381 80.5902 44.5005 80.9004C48.8273 82.9022 51.5615 86.8778 51.5897 91.1776C51.5897 93.0244 51.2937 94.2931 50.4058 96.1822C48.4609 100.285 44.2891 103.273 39.0462 104.302C37.5663 104.599 34.1134 104.556 32.6335 104.246C29.9839 103.668 27.1651 102.442 24.9524 100.891C23.388 99.7771 20.7242 97.1268 19.6108 95.5619C15.9182 90.374 14.2129 83.5084 15.0867 77.376C15.8196 72.3713 17.8491 67.3948 20.7524 63.5744C21.2316 62.94 23.1202 60.6561 23.1202 60.6561C23.1202 60.6561 23.7826 60.0781 24.3886 59.5283C27.4752 56.737 30.7872 54.7492 34.6207 53.3818C39.5959 51.6054 44.6414 51.1543 49.0669 52.0707C53.0695 52.8883 56.7903 54.8761 59.6232 57.6956C63.9782 62.0518 65.8808 68.142 64.5983 73.626C64.2037 75.2895 63.6822 76.798 63.5131 76.798C63.4426 76.798 63.1184 76.375 62.7661 75.8534C61.6104 74.1194 58.5661 71.0179 58.0447 70.8769C57.9319 70.736 56.5225 69.8196 56.0856 69.3967C55.6064 68.9738 53.732 67.86 52.1535 67.2115C50.6313 66.5913 48.5313 66.0414 46.7555 65.7877C45.5716 65.6185 40.8925 65.689 40.3005 65.8723C39.5395 66.0837 38.3274 66.267 37.059 66.704C33.1973 68.0433 29.8852 70.595 27.5879 74.0066C23.8531 79.5329 23.2752 87.202 26.1503 92.9398C28.0389 96.7179 31.0268 99.326 34.8885 100.553C35.9174 100.891 36.3966 100.947 38.2992 101.018C39.7368 101.06 40.8361 101.018 41.3999 100.919C42.7811 100.651 42.7811 100.651 42.7811 100.158C42.7811 99.7207 42.7247 99.6925 41.5549 99.2273C39.765 98.5365 38.5106 97.733 37.214 96.4642C32.0416 91.389 31.9993 83.6353 37.1294 78.6307C40.1878 75.656 44.6696 74.4859 48.7709 75.5715C50.5327 76.0508 52.9286 77.2068 54.493 78.3487Z" fill="black"/>
</svg>
